<svg xmlns="http://www.w3.org/2000/svg" width="41.754" height="41.754"><path fill="#0077b5" d="M38.771 0H2.973A3 3 0 000 3.01v35.734a3 3 0 002.973 3.006h35.8a3 3 0 002.982-3.01V3.01A3 3 0 0038.771 0zM12.619 35.789H6.431V15.863h6.2v19.926zM9.525 13.141a3.588 3.588 0 113.588-3.591 3.59 3.59 0 01-3.588 3.588zm26.292 22.648h-6.189v-9.693c0-2.311-.047-5.284-3.215-5.284-3.225 0-3.719 2.516-3.719 5.117v9.861h-6.188V15.863h5.937v2.721h.084a6.518 6.518 0 015.862-3.215c6.263 0 7.428 4.129 7.428 9.5z"/></svg>